<svg class="railroad-diagram" width="538" height="71" viewBox="0 0 538 71" xmlns="http://www.w3.org/2000/svg" xmlns:xlink="http://www.w3.org/1999/xlink">
<g transform="translate(.5 .5)">
<g>
<path d="M20 30v20m10 -20v20m-10 -10h20"></path>
</g>
<path d="M40 40h10"></path>
<g class="terminal ">
<path d="M50 40h0"></path>
<path d="M112.5 40h0"></path>
<rect x="50" y="29" width="62.5" height="22" rx="10" ry="10"></rect>
<text x="81.25" y="44">'var'</text>
</g>
<path d="M112.5 40h10"></path>
<path d="M122.5 40h10"></path>
<g class="terminal ">
<path d="M132.5 40h0"></path>
<path d="M203.5 40h0"></path>
<rect x="132.5" y="29" width="71" height="22" rx="10" ry="10"></rect>
<text x="168" y="44">spacer</text>
</g>
<path d="M203.5 40h10"></path>
<path d="M213.5 40h10"></path>
<g class="terminal ">
<path d="M223.5 40h0"></path>
<path d="M328.5 40h0"></path>
<rect x="223.5" y="29" width="105" height="22" rx="10" ry="10"></rect>
<text x="276" y="44">identifier</text>
</g>
<path d="M328.5 40h10"></path>
<g>
<path d="M338.5 40h0"></path>
<path d="M449.5 40h0"></path>
<path d="M338.5 40a10 10 0 0 0 10 -10v0a10 10 0 0 1 10 -10"></path>
<g>
<path d="M358.5 20h71"></path>
</g>
<path d="M429.5 20a10 10 0 0 1 10 10v0a10 10 0 0 0 10 10"></path>
<path d="M338.5 40h20"></path>
<g class="terminal ">
<path d="M358.5 40h0"></path>
<path d="M429.5 40h0"></path>
<rect x="358.5" y="29" width="71" height="22" rx="10" ry="10"></rect>
<text x="394" y="44">spacer</text>
</g>
<path d="M429.5 40h20"></path>
</g>
<path d="M449.5 40h10"></path>
<g>
<path d="M459.5 40h0"></path>
<path d="M488 40h0"></path>
<g class="terminal ">
<path d="M459.5 40h0"></path>
<path d="M488 40h0"></path>
<rect x="459.5" y="29" width="28.5" height="22" rx="10" ry="10"></rect>
<text x="473.75" y="44">;</text>
</g>
</g>
<path d="M488 40h10"></path>
<path d="M 498 40 h 20 m -10 -10 v 20 m 10 -20 v 20"></path>
</g>
<style>
	svg {
		background-color: hsl(30,20%,95%);
	}
	path {
		stroke-width: 3;
		stroke: black;
		fill: rgba(0,0,0,0);
	}
	text {
		font: bold 14px monospace;
		text-anchor: middle;
		white-space: pre;
	}
	text.diagram-text {
		font-size: 12px;
	}
	text.diagram-arrow {
		font-size: 16px;
	}
	text.label {
		text-anchor: start;
	}
	text.comment {
		font: italic 12px monospace;
	}
	g.non-terminal text {
		/&#42;font-style: italic;&#42;/
	}
	rect {
		stroke-width: 3;
		stroke: black;
		fill: hsl(120,100%,90%);
	}
	rect.group-box {
		stroke: gray;
		stroke-dasharray: 10 5;
		fill: none;
	}
	path.diagram-text {
		stroke-width: 3;
		stroke: black;
		fill: white;
		cursor: help;
	}
	g.diagram-text:hover path.diagram-text {
		fill: #eee;
	}</style>
</svg>

