<svg class="railroad-diagram" width="327.5" height="109" viewBox="0 0 327.5 109" xmlns="http://www.w3.org/2000/svg" xmlns:xlink="http://www.w3.org/1999/xlink">
<g transform="translate(.5 .5)">
<g>
<path d="M20 38v20m10 -20v20m-10 -10h20"></path>
</g>
<g>
<path d="M40 48h0"></path>
<path d="M213.5 48h0"></path>
<path d="M40 48a10 10 0 0 0 10 -10v-8a10 10 0 0 1 10 -10"></path>
<g>
<path d="M60 20h133.5"></path>
</g>
<path d="M193.5 20a10 10 0 0 1 10 10v8a10 10 0 0 0 10 10"></path>
<path d="M40 48h20"></path>
<g>
<path d="M60 48h0"></path>
<path d="M193.5 48h0"></path>
<path d="M60 48h10"></path>
<g>
<path d="M70 48h1.25"></path>
<path d="M182.25 48h1.25"></path>
<path d="M71.25 48a10 10 0 0 0 10 -10v0a10 10 0 0 1 10 -10"></path>
<g>
<path d="M91.25 28h71"></path>
</g>
<path d="M162.25 28a10 10 0 0 1 10 10v0a10 10 0 0 0 10 10"></path>
<path d="M71.25 48h20"></path>
<g class="terminal ">
<path d="M91.25 48h0"></path>
<path d="M162.25 48h0"></path>
<rect x="91.25" y="37" width="71" height="22" rx="10" ry="10"></rect>
<text x="126.75" y="52">spacer</text>
</g>
<path d="M162.25 48h20"></path>
</g>
<path d="M183.5 48h10"></path>
<path d="M70 48a10 10 0 0 0 -10 10v10a10 10 0 0 0 10 10"></path>
<g class="terminal ">
<path d="M70 78h0"></path>
<path d="M183.5 78h0"></path>
<rect x="70" y="67" width="113.5" height="22" rx="10" ry="10"></rect>
<text x="126.75" y="82">instruction</text>
</g>
<path d="M183.5 78a10 10 0 0 0 10 -10v-10a10 10 0 0 0 -10 -10"></path>
</g>
<path d="M193.5 48h20"></path>
</g>
<path d="M213.5 48h10"></path>
<g class="terminal ">
<path d="M223.5 48h0"></path>
<path d="M277.5 48h0"></path>
<rect x="223.5" y="37" width="54" height="22" rx="10" ry="10"></rect>
<text x="250.5" y="52">'\0'</text>
</g>
<path d="M277.5 48h10"></path>
<path d="M 287.5 48 h 20 m -10 -10 v 20 m 10 -20 v 20"></path>
</g>
<style>
	svg {
		background-color: hsl(30,20%,95%);
	}
	path {
		stroke-width: 3;
		stroke: black;
		fill: rgba(0,0,0,0);
	}
	text {
		font: bold 14px monospace;
		text-anchor: middle;
		white-space: pre;
	}
	text.diagram-text {
		font-size: 12px;
	}
	text.diagram-arrow {
		font-size: 16px;
	}
	text.label {
		text-anchor: start;
	}
	text.comment {
		font: italic 12px monospace;
	}
	g.non-terminal text {
		/&#42;font-style: italic;&#42;/
	}
	rect {
		stroke-width: 3;
		stroke: black;
		fill: hsl(120,100%,90%);
	}
	rect.group-box {
		stroke: gray;
		stroke-dasharray: 10 5;
		fill: none;
	}
	path.diagram-text {
		stroke-width: 3;
		stroke: black;
		fill: white;
		cursor: help;
	}
	g.diagram-text:hover path.diagram-text {
		fill: #eee;
	}</style>
</svg>

